<svg width="24" height="24" viewBox="0 0 24 24" fill="none" xmlns="http://www.w3.org/2000/svg">
<path d="M22 4.00012C22 3.30006 21.9995 2.94976 21.8633 2.68237C21.7434 2.44717 21.5529 2.25608 21.3177 2.13624C21.0503 2 20.6996 2 19.9995 2H3.99951C3.29945 2 2.94976 2 2.68237 2.13624C2.44717 2.25608 2.25608 2.44717 2.13624 2.68237C2 2.94976 2 3.30006 2 4.00012V4.9217C2 5.22743 2 5.38042 2.03454 5.52428C2.06516 5.65182 2.11579 5.77366 2.18433 5.8855C2.2616 6.0116 2.36988 6.11988 2.58594 6.33594L8.91436 12.6644C9.13054 12.8805 9.23805 12.988 9.31535 13.1142C9.38388 13.226 9.4352 13.3483 9.46582 13.4758C9.50001 13.6182 9.5 13.7694 9.5 14.0689V20.0138C9.5 21.0853 9.5 21.6214 9.72568 21.944C9.92274 22.2258 10.2268 22.4137 10.5669 22.464C10.9564 22.5215 11.4359 22.2822 12.3943 21.803L13.3943 21.303C13.7956 21.1023 13.9958 21.0016 14.1424 20.8519C14.272 20.7196 14.3712 20.5606 14.4316 20.3854C14.5 20.1874 14.5 19.9625 14.5 19.5138V14.0782C14.5 13.7725 14.5 13.6197 14.5345 13.4758C14.5652 13.3483 14.6158 13.226 14.6843 13.1142C14.7611 12.9889 14.8683 12.8817 15.0816 12.6684L15.0859 12.6644L21.4144 6.33594C21.6306 6.11975 21.738 6.01164 21.8153 5.8855C21.8839 5.77366 21.9352 5.65182 21.9658 5.52428C22 5.38189 22 5.23055 22 4.931V4.00012Z" stroke="#5963B6" stroke-width="2.5" stroke-linecap="round" stroke-linejoin="round"/>
</svg>
